<svg width="1000" height="1000" viewBox="0 0 1000 1000" fill="none" xmlns="http://www.w3.org/2000/svg">
<rect width="1000" height="1000" fill="#1E1E1E"/>
<rect width="1000" height="1000" rx="200" fill="#181212"/>
<mask id="mask0_0_1" style="mask-type:alpha" maskUnits="userSpaceOnUse" x="140" y="140" width="720" height="720">
<rect x="140" y="140" width="720" height="720" rx="23" fill="#D9D9D9"/>
</mask>
<g mask="url(#mask0_0_1)">
<path d="M320 538.25C320 550.676 330.074 560.75 342.5 560.75H532.25C544.676 560.75 554.75 550.676 554.75 538.25V538.25C554.75 525.824 544.676 515.75 532.25 515.75H342.5C330.074 515.75 320 525.824 320 538.25V538.25ZM320 440.75C320 453.176 330.074 463.25 342.5 463.25H657.5C669.926 463.25 680 453.176 680 440.75V440.75C680 428.324 669.926 418.25 657.5 418.25H342.5C330.074 418.25 320 428.324 320 440.75V440.75ZM320 343.25C320 355.676 330.074 365.75 342.5 365.75H657.5C669.926 365.75 680 355.676 680 343.25V343.25C680 330.824 669.926 320.75 657.5 320.75H342.5C330.074 320.75 320 330.824 320 343.25V343.25ZM239.263 760.737C224.774 775.226 200 764.964 200 744.473V245C200 233 204.5 222.5 213.5 213.5C222.5 204.5 233 200 245 200H755C767 200 777.5 204.5 786.5 213.5C795.5 222.5 800 233 800 245V635C800 647 795.5 657.5 786.5 666.5C777.5 675.5 767 680 755 680H329.527C323.427 680 317.577 682.423 313.263 686.737L239.263 760.737ZM293.672 642.382C298.025 637.676 304.145 635 310.556 635H732C744.703 635 755 624.703 755 612V268C755 255.297 744.703 245 732 245H245V636.264C245 657.189 270.675 667.243 284.884 651.882L293.672 642.382Z" fill="url(#paint0_radial_0_1)"/>
</g>
<defs>
<radialGradient id="paint0_radial_0_1" cx="0" cy="0" r="1" gradientUnits="userSpaceOnUse" gradientTransform="translate(500 500) rotate(90) scale(300)">
<stop stop-color="#93ADF0"/>
<stop offset="1" stop-color="#3F5DAB"/>
</radialGradient>
</defs>
</svg>
